{"title":"Avril Lavigne - Hello Kitty (2014) 720p x264 AAC [GWC].mp4","uid":10020563,"size":70763821,"categoryP":"video","categoryS":"music_videos","magnet":"?xt=urn:btih:c340da4aae2ef83da96a07efeabc59ea6b5d60f0&amp;dn=Avril+Lavigne+-+Hello+Kitty+%282014%29+720p+x264+AAC+%5BGWC%5D.mp4&amp;tr=udp%3A%2F%2Ftracker.openbittorrent.com%3A80&amp;tr=udp%3A%2F%2Fopen.demonii.com%3A1337&amp;tr=udp%3A%2F%2Ftracker.coppersurfer.tk%3A6969&amp;tr=udp%3A%2F%2Fexodus.desync.com%3A6969","seeders":4,"leechers":0,"uploader":"canc232","files":1,"time":1398203255,"description":"Avril Lavigne - Hello Kitty (2014) 720p x264 AAC [GWC]\n\n\nCOVER : &lt;a href=&quot;\nhttp://i.imgur.com/UH6iECU.jpg&quot; rel=&quot;nofollow&quot; target=&quot;_NEW&quot;&gt;\nhttp://i.imgur.com/UH6iECU.jpg&lt;/a&gt;\n\n\nTHUMBNAIL IMAGE : &lt;a href=&quot;\nhttp://img843.imageshack.us/img843/8862/li2i.jpg&quot; rel=&quot;nofollow&quot; target=&quot;_NEW&quot;&gt;\nhttp://img843.imageshack.us/img843/8862/li2i.jpg&lt;/a&gt;\n\n\nMEDIA INFO :\nGeneral  \nFormat : MPEG-4 \nFormat profile : Base Media \nFile size : 67.5 MiB \nDuration : 3mn 18s \nOverall bit rate mode : Variable \nOverall bit rate : 2 855 Kbps \n\nVideo \nFormat : AVC \nFormat profile : &lt;a class=&quot;__cf_email__&quot; href=&quot;/cdn-cgi/l/email-protection&quot; data-cfemail=&quot;4800212f2008047b6679&quot;&gt;[email&amp;#160;protected]&lt;/a&gt;&lt;script cf-hash='f9e31' type=&quot;text/javascript&quot;&gt;\n/* &lt;![CDATA[ */!function(){try{var t=&quot;currentScript&quot;in document?document.currentScript:function(){for(var t=document.getElementsByTagName(&quot;script&quot;),e=t.length;e--;)if(t[e].getAttribute(&quot;cf-hash&quot;))return t[e]}();if(t&amp;&amp;t.previousSibling){var e,r,n,i,c=t.previousSibling,a=c.getAttribute(&quot;data-cfemail&quot;);if(a){for(e=&quot;&quot;,r=parseInt(a.substr(0,2),16),n=2;a.length-n;n+=2)i=parseInt(a.substr(n,2),16)^r,e+=String.fromCharCode(i);e=document.createTextNode(e),c.parentNode.replaceChild(e,c)}}}catch(u){}}();/* ]]&gt; */&lt;/script&gt; \nFormat settings, CABAC : Yes \nFormat settings, ReFrames : 1 frame \nDuration : 3mn 18s \nBit rate : 2 768 Kbps \nMaximum bit rate : 4 438 Kbps \nWidth : 1 280 pixels \nHeight : 720 pixels \nDisplay aspect ratio : 16:9 \nFrame rate : 30.000 fps \nStream size : 65.4 MiB (97%) \nTitle : Avril Lavigne - Hello Kitty (2014) 720p x264 AAC [GWC] \n\nAudio \nFormat : AAC \nFormat profile : LC \nDuration : 3mn 18s \nBit rate mode : Variable \nChannel(s) : 2 channels \nStream size : 2.00 MiB (3%) \nLanguage : English ","torrent":{"xt":"urn:btih:c340da4aae2ef83da96a07efeabc59ea6b5d60f0","amp;dn":"Avril+Lavigne+-+Hello+Kitty+%282014%29+720p+x264+AAC+%5BGWC%5D.mp4","amp;tr":["udp%3A%2F%2Ftracker.openbittorrent.com%3A80","udp%3A%2F%2Fopen.demonii.com%3A1337","udp%3A%2F%2Ftracker.coppersurfer.tk%3A6969","udp%3A%2F%2Fexodus.desync.com%3A6969"],"infoHash":"c340da4aae2ef83da96a07efeabc59ea6b5d60f0","infoHashBuffer":{"type":"Buffer","data":[195,64,218,74,174,46,248,61,169,106,7,239,234,188,89,234,107,93,96,240]},"announce":[],"urlList":[]}}